<svg xmlns="http://www.w3.org/2000/svg" width="256" height="256" viewBox="0 0 100 100"><rect width="100" height="100" rx="20" fill="#000000"></rect><path d="M44.15 30.33L44.15 30.33Q44.15 31.49 43.44 32.32Q42.74 33.15 41.82 33.57L41.82 33.57Q39.67 32.07 36.76 30.74Q33.86 29.42 29.21 29.42L29.21 29.42Q25.39 29.42 22.15 30.74Q18.92 32.07 16.51 34.64Q14.10 37.22 12.73 41.12Q11.36 45.02 11.36 50.08L11.36 50.08Q11.36 55.23 12.69 59.05Q14.02 62.86 16.38 65.44Q18.75 68.01 22.07 69.30Q25.39 70.58 29.46 70.58L29.46 70.58Q33.77 70.58 36.97 69.38Q40.16 68.18 42.32 66.52L42.32 66.52Q43.15 66.85 43.90 67.72Q44.65 68.59 44.65 69.75L44.65 69.75Q44.65 71.50 42.65 72.91L42.65 72.91Q40.75 74.24 37.43 75.27Q34.11 76.31 28.96 76.31L28.96 76.31Q23.73 76.31 19.25 74.65Q14.77 72.99 11.49 69.71Q8.21 66.43 6.30 61.54Q4.39 56.64 4.39 50.08L4.39 50.08Q4.39 43.53 6.34 38.59Q8.29 33.65 11.61 30.33Q14.93 27.01 19.37 25.35Q23.81 23.69 28.71 23.69L28.71 23.69Q32.11 23.69 34.98 24.27Q37.84 24.85 39.87 25.81Q41.91 26.76 43.03 27.96Q44.15 29.17 44.15 30.33ZM95.61 75.07L95.61 75.07Q95.11 75.23 94.28 75.44Q93.45 75.65 92.45 75.65L92.45 75.65Q88.80 75.65 88.80 72.58L88.80 72.58L88.80 52.49L62.91 52.49L62.91 75.07Q62.41 75.23 61.58 75.44Q60.75 75.65 59.75 75.65L59.75 75.65Q56.10 75.65 56.10 72.58L56.10 72.58L56.10 24.93Q56.52 24.77 57.39 24.56Q58.26 24.35 59.25 24.35L59.25 24.35Q62.91 24.35 62.91 27.42L62.91 27.42L62.91 46.85L88.80 46.85L88.80 24.93Q89.22 24.77 90.09 24.56Q90.96 24.35 91.96 24.35L91.96 24.35Q95.61 24.35 95.61 27.42L95.61 27.42L95.61 75.07Z" fill="#fff"></path></svg>